<?xml version="1.0" encoding="UTF-8" standalone="no"?>

<svg xmlns="http://www.w3.org/2000/svg" width="800" height="600" >

<defs>
<!-- arrowhead marker definition for distance quote -->
<marker id="arrowDist" viewBox="0 0 10 10" refX="0" refY="5"
markerWidth="4" markerHeight="4"
orient="auto-start-reverse">
<path d="M 0 1.5 L 10 5 L 0 8.5 z" />
</marker>
</defs>

<rect x="550.000000" y="170.000000" width="300.000000" height="60.000000" fill="blue" transform="rotate(120.000000,550.000000,200.000000)" />

<rect x="325.000000" y="417.807621" width="150.000000" height="100.000000" fill="red" transform="rotate(0.000000,0.000000,0.000000)" />

<circle cx="400.000000" cy="200.000000" r="84.000000" fill="green" />

<circle cx="550.000000" cy="200.000000" r="42.000000" fill="green" />

<rect x="400.000000" y="158.000000" width="150.000000" height="84.000000" fill="green" transform="rotate(0.000000,400.000000,200.000000)" />

<circle cx="400.000000" cy="200.000000" r="60.000000" fill="gray" />

<circle cx="550.000000" cy="200.000000" r="30.000000" fill="Blue" />

<circle cx="400.000000" cy="459.807621" r="30.000000" fill="Blue" />

<line x1="400.000000" y1="140.000000" x2="256.000000" y2="140.000000" style="stroke:black;stroke-width:2"  />
<line x1="400.000000" y1="260.000000" x2="256.000000" y2="260.000000" style="stroke:black;stroke-width:2"  />
<line x1="276.000000" y1="149.000000" x2="276.000000" y2="251.000000" style="stroke:black;stroke-width:2" marker-start="url(#arrowDist)" marker-end="url(#arrowDist)" />
<text x="273.000000" y="200.000000" fill="black" transform="rotate(270.000000,273.000000,200.000000)" text-anchor="middle"  >dShaft</text>

<line x1="550.000000" y1="170.000000" x2="652.000000" y2="170.000000" style="stroke:black;stroke-width:2"  />
<line x1="550.000000" y1="230.000000" x2="652.000000" y2="230.000000" style="stroke:black;stroke-width:2"  />
<line x1="632.000000" y1="179.000000" x2="632.000000" y2="221.000000" style="stroke:black;stroke-width:2" marker-start="url(#arrowDist)" marker-end="url(#arrowDist)" />
<text x="629.000000" y="200.000000" fill="black" transform="rotate(270.000000,629.000000,200.000000)" text-anchor="middle"  >wBiella</text>

<line x1="325.000000" y1="417.807621" x2="265.000000" y2="417.807621" style="stroke:black;stroke-width:2"  />
<line x1="325.000000" y1="517.807621" x2="265.000000" y2="517.807621" style="stroke:black;stroke-width:2"  />
<line x1="285.000000" y1="426.807621" x2="285.000000" y2="508.807621" style="stroke:black;stroke-width:2" marker-start="url(#arrowDist)" marker-end="url(#arrowDist)" />
<text x="282.000000" y="467.807621" fill="black" transform="rotate(270.000000,282.000000,467.807621)" text-anchor="middle"  >hPistone</text>

<line x1="325.000000" y1="517.807621" x2="325.000000" y2="577.807621" style="stroke:black;stroke-width:2"  />
<line x1="475.000000" y1="517.807621" x2="475.000000" y2="577.807621" style="stroke:black;stroke-width:2"  />
<line x1="334.000000" y1="557.807621" x2="466.000000" y2="557.807621" style="stroke:black;stroke-width:2" marker-start="url(#arrowDist)" marker-end="url(#arrowDist)" />
<text x="400.000000" y="554.807621" fill="black" text-anchor="middle"  >dPistone</text>

<line x1="550.000000" y1="200.000000" x2="550.000000" y2="56.000000" style="stroke:black;stroke-width:2"  />
<line x1="400.000000" y1="200.000000" x2="400.000000" y2="56.000000" style="stroke:black;stroke-width:2"  />
<line x1="541.000000" y1="76.000000" x2="409.000000" y2="76.000000" style="stroke:black;stroke-width:2" marker-start="url(#arrowDist)" marker-end="url(#arrowDist)" />
<text x="475.000000" y="73.000000" fill="black" transform="rotate(360.000000,475.000000,73.000000)" text-anchor="middle"  >stroke/2</text>

<line x1="400.000000" y1="459.807621" x2="521.243557" y2="529.807621" style="stroke:black;stroke-width:2"  />
<line x1="550.000000" y1="200.000000" x2="671.243557" y2="270.000000" style="stroke:black;stroke-width:2"  />
<line x1="508.423049" y1="512.013392" x2="649.423049" y2="267.794228" style="stroke:black;stroke-width:2" marker-start="url(#arrowDist)" marker-end="url(#arrowDist)" />
<text x="576.324972" y="388.403810" fill="black" transform="rotate(300.000000,576.324972,388.403810)" text-anchor="middle"  >lenBiella</text>

<line x1="400.000000" y1="200.000000" x2="492.000000" y2="200.000000" style="stroke:black;stroke-width:2"  />
<line x1="400.000000" y1="200.000000" x2="400.000000" y2="292.000000" style="stroke:black;stroke-width:2"  />
<path d="
M 472.414162 209.229794
A 73.000000 73.000000 0 0 1 409.229794 272.414162
L 408.976923 270.430213
A 71.000000 71.000000 0 0 0 470.430213 208.976923
Z"
style="fill:black" />
<path d="
M 471.422188 209.103358
A 72.000000 72.000000 0 0 1 409.103358 271.422187"
fill="transparent" stroke-width="2" marker-start="url(#arrowDist)" marker-end="url(#arrowDist)" />
<text x="461.518290" y="261.518290" fill="black" transform="rotate(315.000000,461.518290,261.518290)" text-anchor="middle"  >angle</text>

</svg>
