<?xml version="1.0" encoding="UTF-8" standalone="no"?>

<svg xmlns="http://www.w3.org/2000/svg" width="800" height="600" >

<defs>
<!-- arrowhead marker definition for distance quote -->
<marker id="arrowDist" viewBox="0 0 10 10" refX="0" refY="5"
markerWidth="4" markerHeight="4"
orient="auto-start-reverse">
<path d="M 0 1.5 L 10 5 L 0 8.5 z" />
</marker>
</defs>

<rect x="550.000000" y="370.000000" width="300.000000" height="60.000000" fill="blue" transform="rotate(240.000000,550.000000,400.000000)" />

<rect x="325.000000" y="82.192379" width="150.000000" height="100.000000" fill="red" transform="rotate(0.000000,0.000000,0.000000)" />

<circle cx="400.000000" cy="400.000000" r="84.000000" fill="green" />

<circle cx="550.000000" cy="400.000000" r="42.000000" fill="green" />

<rect x="400.000000" y="358.000000" width="150.000000" height="84.000000" fill="green" transform="rotate(0.000000,400.000000,400.000000)" />

<circle cx="400.000000" cy="400.000000" r="60.000000" fill="gray" />

<circle cx="550.000000" cy="400.000000" r="30.000000" fill="Blue" />

<circle cx="400.000000" cy="140.192379" r="30.000000" fill="Blue" />

<line x1="400.000000" y1="340.000000" x2="256.000000" y2="340.000000" style="stroke:black;stroke-width:2"  />
<line x1="400.000000" y1="460.000000" x2="256.000000" y2="460.000000" style="stroke:black;stroke-width:2"  />
<line x1="276.000000" y1="349.000000" x2="276.000000" y2="451.000000" style="stroke:black;stroke-width:2" marker-start="url(#arrowDist)" marker-end="url(#arrowDist)" />
<text x="273.000000" y="400.000000" fill="black" transform="rotate(270.000000,273.000000,400.000000)" text-anchor="middle"  >dShaft</text>

<line x1="550.000000" y1="370.000000" x2="652.000000" y2="370.000000" style="stroke:black;stroke-width:2"  />
<line x1="550.000000" y1="430.000000" x2="652.000000" y2="430.000000" style="stroke:black;stroke-width:2"  />
<line x1="632.000000" y1="379.000000" x2="632.000000" y2="421.000000" style="stroke:black;stroke-width:2" marker-start="url(#arrowDist)" marker-end="url(#arrowDist)" />
<text x="629.000000" y="400.000000" fill="black" transform="rotate(270.000000,629.000000,400.000000)" text-anchor="middle"  >wRod</text>

<line x1="325.000000" y1="82.192379" x2="265.000000" y2="82.192379" style="stroke:black;stroke-width:2"  />
<line x1="325.000000" y1="182.192379" x2="265.000000" y2="182.192379" style="stroke:black;stroke-width:2"  />
<line x1="285.000000" y1="91.192379" x2="285.000000" y2="173.192379" style="stroke:black;stroke-width:2" marker-start="url(#arrowDist)" marker-end="url(#arrowDist)" />
<text x="282.000000" y="132.192379" fill="black" transform="rotate(270.000000,282.000000,132.192379)" text-anchor="middle"  >hPiston</text>

<line x1="325.000000" y1="82.192379" x2="325.000000" y2="22.192379" style="stroke:black;stroke-width:2"  />
<line x1="475.000000" y1="82.192379" x2="475.000000" y2="22.192379" style="stroke:black;stroke-width:2"  />
<line x1="334.000000" y1="42.192379" x2="466.000000" y2="42.192379" style="stroke:black;stroke-width:2" marker-start="url(#arrowDist)" marker-end="url(#arrowDist)" />
<text x="400.000000" y="39.192379" fill="black" text-anchor="middle"  >dPiston</text>

<line x1="550.000000" y1="400.000000" x2="550.000000" y2="544.000000" style="stroke:black;stroke-width:2"  />
<line x1="400.000000" y1="400.000000" x2="400.000000" y2="544.000000" style="stroke:black;stroke-width:2"  />
<line x1="541.000000" y1="524.000000" x2="409.000000" y2="524.000000" style="stroke:black;stroke-width:2" marker-start="url(#arrowDist)" marker-end="url(#arrowDist)" />
<text x="475.000000" y="521.000000" fill="black" transform="rotate(360.000000,475.000000,521.000000)" text-anchor="middle"  >stroke/2</text>

<line x1="400.000000" y1="140.192379" x2="521.243556" y2="70.192379" style="stroke:black;stroke-width:2"  />
<line x1="550.000000" y1="400.000000" x2="671.243556" y2="330.000000" style="stroke:black;stroke-width:2"  />
<line x1="508.423048" y1="87.986607" x2="649.423048" y2="332.205771" style="stroke:black;stroke-width:2" marker-start="url(#arrowDist)" marker-end="url(#arrowDist)" />
<text x="581.521125" y="208.596189" fill="black" transform="rotate(60.000000,581.521125,208.596189)" text-anchor="middle"  >lRod</text>

<line x1="400.000000" y1="400.000000" x2="492.000000" y2="400.000000" style="stroke:black;stroke-width:2"  />
<line x1="400.000000" y1="400.000000" x2="400.000000" y2="492.000000" style="stroke:black;stroke-width:2"  />
<path d="
M 472.414162 409.229794
A 73.000000 73.000000 0 0 1 409.229794 472.414162
L 408.976923 470.430213
A 71.000000 71.000000 0 0 0 470.430213 408.976923
Z"
style="fill:black" />
<path d="
M 471.422188 409.103358
A 72.000000 72.000000 0 0 1 409.103358 471.422187"
fill="transparent" stroke-width="2" marker-start="url(#arrowDist)" marker-end="url(#arrowDist)" />
<text x="461.518290" y="461.518290" fill="black" transform="rotate(315.000000,461.518290,461.518290)" text-anchor="middle"  >90.0</text>

</svg>
